<?xml version="1.0" ?>
<!-- Uploaded to: SVG Repo, www.svgrepo.com, Generator: SVG Repo Mixer Tools -->
<svg fill="#000000" width="800px" height="800px" viewBox="0 0 64 64" xmlns="http://www.w3.org/2000/svg">
<g data-name="35 box" id="_35_box">
<path d="M60.05,14.96a2.008,2.008,0,0,0-1.54-.71H25.04a1.97,1.97,0,0,0-1.96,1.6L17.5,47.49a1.9,1.9,0,0,0,.42,1.55,2.008,2.008,0,0,0,1.54.71H52.93a1.97,1.97,0,0,0,1.96-1.6l5.58-31.64A1.863,1.863,0,0,0,60.05,14.96ZM39.79,16.25h3.87l-2.3,10.9c-1.33-1.4-1.34-1.4-1.78-1.4-.28,0-.29,0-2.36,1.23.36-1.56.74-3.1,1.12-4.61C38.83,20.38,39.34,18.32,39.79,16.25Zm13.15,31.5h-.01l-33.46.09,5.57-31.59,12.7-.03c-.42,1.91-.89,3.82-1.34,5.67-.56,2.25-1.13,4.57-1.63,6.92a1,1,0,0,0,.98,1.2c.29,0,.29,0,2.41-1.26.45-.27.9-.54,1.25-.74.19.19.41.42.63.66,1.45,1.54,1.45,1.54,1.9,1.54a1,1,0,0,0,.98-.79l2.8-13.23,12.78-.03Z"/>
<path d="M12.382,23.146h6.9a1,1,0,0,0,0-2h-6.9a1,1,0,1,0,0,2Z"/>
<path d="M16.324,31H8.441a1,1,0,0,0,0,2h7.883a1,1,0,0,0,0-2Z"/>
<path d="M14.353,40.854H4.5a1,1,0,0,0,0,2h9.853a1,1,0,1,0,0-2Z"/>
<path d="M51.6,40.25a1,1,0,0,0-.79-.38H42.93a1,1,0,0,0-.97.76l-.99,3.94a1,1,0,0,0,.97,1.24h7.88a1,1,0,0,0,.97-.76l.99-3.94A1.022,1.022,0,0,0,51.6,40.25Zm-2.56,3.56H43.22l.49-1.94h5.82Z"/>
</g>
</svg>